<svg width="20px" height="20px" viewBox="0 0 25 25" version="1.1" xmlns="http://www.w3.org/2000/svg">
   <title>SearchIcon</title>
   <desc>Created with Sketch.</desc>
   <g id="Page-1" stroke="none" stroke-width="1" fill="none" fill-rule="evenodd" fill-opacity="0.5">
       <g id="Homepage" transform="translate(-313.000000, -144.000000)" fill="#8E8E93" fill-rule="nonzero">
           <g id="SearchFunktion" transform="translate(25.000000, 140.000000)">
               <g id="Outlined/UI/search" transform="translate(287.000000, 3.000000)">
                   <path d="M25.99625,24.75375 L17.24625,16.00375 C20.1948225,12.3932403 19.7951543,7.10504218 16.3374283,3.9787038 C12.8797024,0.852365419 7.57809927,0.985700547 4.28189991,4.28189991 C0.985700547,7.57809927 0.852365419,12.8797024 3.9787038,16.3374283 C7.10504218,19.7951543 12.3932403,20.1948225 16.00375,17.24625 L24.75375,25.99625 L25.99625,24.75375 Z M3.49999997,10.5 C3.49999997,6.63400673 6.63400673,3.49999997 10.5,3.49999997 C14.3659932,3.49999997 17.5,6.63400673 17.5,10.5 C17.5,14.3659932 14.3659932,17.5 10.5,17.5 C8.64348455,17.5 6.86300716,16.7625021 5.55025251,15.4497475 C4.23749785,14.1369928 3.49999997,12.3565154 3.49999997,10.5 L3.49999997,10.5 Z" id="Style"></path>
               </g>
           </g>
       </g>
   </g>
</svg>